<?xml version="1.0" encoding="UTF-8" standalone="no"?>
<!-- Created with Inkscape (http://www.inkscape.org/) -->

<svg
   width="255.36324mm"
   height="240.17078mm"
   viewBox="0 0 255.36324 240.17078"
   version="1.1"
   id="svg10587"
   inkscape:version="1.1.1 (3bf5ae0d25, 2021-09-20)"
   sodipodi:docname="logo-white.svg"
   inkscape:export-filename="C:\Users\Alex\Documents\alxhug-blog\inkscape-logo\bitmap2.png"
   inkscape:export-xdpi="96"
   inkscape:export-ydpi="96"
   xmlns:inkscape="http://www.inkscape.org/namespaces/inkscape"
   xmlns:sodipodi="http://sodipodi.sourceforge.net/DTD/sodipodi-0.dtd"
   xmlns="http://www.w3.org/2000/svg"
   xmlns:svg="http://www.w3.org/2000/svg">
  <sodipodi:namedview
     id="namedview10589"
     pagecolor="#ffffff"
     bordercolor="#666666"
     borderopacity="1.0"
     inkscape:pageshadow="2"
     inkscape:pageopacity="0.0"
     inkscape:pagecheckerboard="0"
     inkscape:document-units="mm"
     showgrid="false"
     inkscape:zoom="0.36168631"
     inkscape:cx="145.15341"
     inkscape:cy="678.76498"
     inkscape:window-width="1920"
     inkscape:window-height="1001"
     inkscape:window-x="-9"
     inkscape:window-y="-9"
     inkscape:window-maximized="1"
     inkscape:current-layer="layer1"
     fit-margin-left="5"
     fit-margin-top="5"
     fit-margin-right="5"
     fit-margin-bottom="5" />
  <defs
     id="defs10584">
    <inkscape:path-effect
       effect="simplify"
       id="path-effect10347"
       is_visible="true"
       lpeversion="1"
       steps="1"
       threshold="0.00186047"
       smooth_angles="360"
       helper_size="0"
       simplify_individual_paths="false"
       simplify_just_coalesce="false" />
    <inkscape:path-effect
       effect="skeletal"
       id="path-effect10351"
       is_visible="true"
       lpeversion="1"
       pattern="m -540.25537,-382.03567 c 0,-2.7556 2.23648,-4.9921 4.99214,-4.9921 2.75566,0 4.99214,2.2365 4.99214,4.9921 0,2.7557 -2.23648,4.9922 -4.99214,4.9922 -2.75566,0 -4.99214,-2.2365 -4.99214,-4.9922 z"
       copytype="single_stretched"
       prop_scale="5"
       scale_y_rel="false"
       spacing="0"
       normal_offset="0"
       tang_offset="0"
       prop_units="false"
       vertical_pattern="false"
       hide_knot="false"
       fuse_tolerance="0" />
    <inkscape:path-effect
       effect="simplify"
       id="path-effect10355"
       is_visible="true"
       lpeversion="1"
       steps="1"
       threshold="0.00186047"
       smooth_angles="360"
       helper_size="0"
       simplify_individual_paths="false"
       simplify_just_coalesce="false" />
    <inkscape:path-effect
       effect="skeletal"
       id="path-effect10359"
       is_visible="true"
       lpeversion="1"
       pattern="m -540.85656,-382.91909 c 0,-2.75566 2.23648,-4.99214 4.99214,-4.99214 2.75566,0 4.99214,2.23648 4.99214,4.99214 0,2.75566 -2.23648,4.99214 -4.99214,4.99214 -2.75566,0 -4.99214,-2.23648 -4.99214,-4.99214 z"
       copytype="single_stretched"
       prop_scale="2.5"
       scale_y_rel="false"
       spacing="0"
       normal_offset="0"
       tang_offset="0"
       prop_units="false"
       vertical_pattern="false"
       hide_knot="false"
       fuse_tolerance="0" />
    <inkscape:path-effect
       effect="simplify"
       id="path-effect10363"
       is_visible="true"
       lpeversion="1"
       steps="1"
       threshold="0.00186047"
       smooth_angles="360"
       helper_size="0"
       simplify_individual_paths="false"
       simplify_just_coalesce="false" />
    <inkscape:path-effect
       effect="skeletal"
       id="path-effect10367"
       is_visible="true"
       lpeversion="1"
       pattern="m -540.61968,-382.41958 c 0,-2.75566 2.23648,-4.99214 4.99213,-4.99214 2.75567,0 4.99214,2.23648 4.99214,4.99214 0,2.75566 -2.23648,4.99214 -4.99214,4.99214 -2.75566,0 -4.99213,-2.23648 -4.99213,-4.99214 z"
       copytype="single_stretched"
       prop_scale="1"
       scale_y_rel="false"
       spacing="0"
       normal_offset="0"
       tang_offset="0"
       prop_units="false"
       vertical_pattern="false"
       hide_knot="false"
       fuse_tolerance="0" />
  </defs>
  <g
     inkscape:label="Layer 1"
     inkscape:groupmode="layer"
     id="layer1"
     transform="translate(74.645907,35.959743)">
    <path
       style="fill:#ececec;fill-opacity:1;stroke:none;stroke-width:0.264583px;stroke-linecap:butt;stroke-linejoin:miter;stroke-opacity:1"
       d="m 92.64589,41.4954 c 0.06382,0.306219 -1.269063,1.808172 -4.509466,0.58153 -1.220604,-0.408934 -2.556945,-1.118138 -3.869328,-1.656228 0,0 -6e-6,-2e-6 -6e-6,-2e-6 -1.828061,-0.853392 -3.364302,-1.947197 -5.115241,-3.261555 -1.622848,-1.203957 -3.32238,-2.57101 -5.13607,-3.925891 -0.677416,-0.504754 -1.356263,-1.00003 -2.008848,-1.404243 -0.5225,-0.297908 -0.818494,-0.494925 -0.885848,-0.424142 -0.03205,0.05901 0.235986,0.112548 0.829552,0.209754 0.628125,0.118274 1.41696,-0.171636 2.427584,-0.873825 1.087467,-2.004325 1.663833,-2.667465 1.179878,-2.136729 0.630524,3.51096 3.038438,7.486758 4.741353,13.604688 0.410968,1.350562 1.299062,3.525836 1.863365,6.179247 0.77698,2.626145 0.407339,6.232734 -2.161041,10.045331 -2.756119,3.367561 -5.739165,5.962206 -8.680256,8.500697 -3.155839,2.949638 -7.709599,8.118435 -14.92675,11.464558 -3.916427,1.043702 -7.079458,0.761296 -9.04798,-0.403784 -1.92791,-0.823602 -2.976823,-1.488541 -3.259449,-1.481909 -2.71301,-1.040452 -4.813356,-2.250253 -6.456509,-3.261396 -1.967419,-1.152516 -3.824156,-2.307191 -5.479981,-3.172911 -1.694147,-0.66009 -2.236569,-1.208436 -1.60854,-0.78324 0.651042,0.414428 2.036019,-0.08798 4.392472,-1.388929 1.763063,-2.192353 2.576058,-3.371147 2.210521,-3.786111 -0.292674,-1.941507 -0.08159,-2.477286 -0.02021,-1.770726 0.289859,0.441689 0.99113,1.173876 1.940918,2.360054 1.596811,1.96726 3.854948,3.879195 6.541461,6.440531 2.593252,2.355534 5.503241,5.374115 8.076484,9.419413 3.089755,6.289955 3.489576,11.567169 3.441231,14.766305 0.976282,8.151813 0.94943,15.944023 4.036214,20.058623 0,0 10e-6,2e-5 10e-6,2e-5 0.163157,0.95098 2.660999,1.69708 4.566136,1.74183 5.637469,-0.0558 11.702811,-2.75834 18.306011,-6.27156 9.871886,-5.53461 18.611658,-14.172448 24.743538,-24.667183 5.73378,-9.917709 9.20872,-21.593328 8.87758,-33.227681 -0.2648,-11.835462 -5.38109,-24.286518 -14.2386,-32.750043 C 96.707227,13.893366 89.063967,8.5811556 80.948128,6.4030074 68.961167,2.5384959 54.360438,5.6886339 40.73013,11.875841 26.292621,18.728817 13.107654,28.881866 1.6494122,41.278599 c -4.3111943,4.664304 -8.3275712,9.592249 -12.0325392,14.698884 -11.995479,16.945332 -20.84262,35.121086 -22.680148,53.582107 -1.21138,12.61033 1.479362,25.52281 8.585505,34.11654 9.244862,12.21613 25.4263572,18.90514 40.967781,20.21551 20.625371,1.70116 41.548195,-4.88476 59.308518,-13.92891 7e-6,0 1.5e-5,-1e-5 2.2e-5,-2e-5 22.59681,-11.79563 40.557929,-26.86337 52.662449,-44.3396 5.72334,-8.373222 10.00859,-16.372552 11.66135,-24.575083 3.85079,-17.793239 3.41321,-35.530214 4.98266,-51.007659 1e-5,-6e-6 1e-5,-1.2e-5 1e-5,-1.9e-5 1.7459,-18.774319 4.83817,-31.7330837 11.10864,-42.681325 4.08858,-7.103275 9.04873,-11.245234 12.60522,-13.404999 3.55648,-2.159766 5.75701,-2.509453 6.09781,-1.932127 0.3408,0.577326 -1.1512,2.063684 -3.56283,4.93766 -2.38145,2.838033 -5.73923,7.290643 -8.2234,13.75237 -4.20289,10.7423218 -5.0546,21.288522 -5.43197,40.044227 0,1e-6 0,1.9e-5 0,1.9e-5 -0.12317,12.064998 1.16833,35.139895 -1.43612,53.160473 -1.80672,11.257951 -6.44224,21.838003 -12.71259,31.654963 -13.15615,20.83523 -32.84625,39.13132 -57.73151,52.95846 -5e-6,0 -2.9e-5,2e-5 -2.9e-5,2e-5 -19.8049,11.22843 -44.303996,19.43513 -70.7205,18.27927 -21.0525397,-0.91418 -43.147752,-9.94206 -58.295828,-28.09916 -11.566853,-14.65783 -16.323394,-33.48228 -14.291707,-51.71876 2.631356,-24.0442 12.850249,-46.336011 26.856161,-65.568321 4.237148,-5.94379 8.884591,-11.681961 13.928538,-17.128008 C -3.2998476,9.8212107 12.482919,-2.1358543 30.073122,-10.5219 c 17.412122,-8.582752 38.002181,-11.951582 57.771761,-6.44364 12.961637,4.042666 23.838047,11.4775974 32.352867,20.1349746 13.45403,13.4962194 20.488,31.6333814 20.53204,49.5609014 -0.0396,16.454239 -5.02335,31.980448 -13.05952,44.872928 -8.46553,13.685516 -20.33576,24.561776 -33.785134,31.573596 -8.102158,4.39796 -17.489406,7.60019 -27.778321,7.8479 -8.741255,0.24691 -16.922994,-4.26159 -21.75092,-12.24977 0,0 -1.7e-5,-3e-5 -1.7e-5,-3e-5 -5.084291,-10.54343 -5.273365,-20.73849 -5.292945,-28.296703 -0.526789,-4.422372 0.132409,-6.968033 -0.507445,-7.062001 -0.891516,-1.878114 -2.772108,-3.892621 -4.897155,-6.215773 -2.32139,-2.404733 -4.960814,-5.043472 -7.536832,-8.461009 -0.620028,-0.840249 -1.550198,-2.031005 -2.617534,-3.722202 -1.202101,-1.24976 -2.141337,-4.081058 -2.223515,-8.30624 -0.260478,-1.599637 0.884319,-4.02969 3.556027,-6.975971 3.160096,-1.967745 5.672111,-2.59152 7.35495,-2.068316 4.007987,0.781168 6.478259,2.090312 7.665158,3.095602 2.16983,1.348435 4.094684,2.725421 5.755087,3.866401 1.710371,1.109133 2.85014,1.992483 3.735587,2.350767 2.169217,0.958004 3.395754,1.803966 3.821155,2.033102 0.361067,-0.119898 -0.142649,0.197366 -1.720972,0.353679 3.269748,-0.652798 7.311615,-4.886829 12.034848,-8.229232 3.231464,-2.400605 5.825843,-4.149418 7.856713,-6.264173 -3.69e-4,0.871746 -0.155328,0.235751 0.05011,-0.793071 -0.05916,-1.359106 -0.653185,-3.258577 -1.069266,-5.627097 -0.679647,-4.478059 -2.672067,-9.630756 -3.014761,-14.937792 -0.58626,-0.396218 -0.124707,-2.158686 1.637132,-4.774006 1.237988,-0.908194 2.345584,-1.276494 3.277679,-1.148032 1.012829,0.111257 1.684676,0.304562 2.03349,0.527275 1.148609,0.593264 1.915881,1.194208 2.402152,1.672416 0.818029,0.72863 1.529538,1.454513 2.150305,2.11821 1.551957,1.651506 3.21519,3.597669 4.344453,4.887318 1.545422,1.716247 2.314624,2.72227 3.496152,3.727074 0,0 6e-6,5e-6 6e-6,5e-6 1.409773,1.124588 2.258151,2.06952 3.017651,2.734206 1.777465,1.416695 2.871009,1.704489 2.981787,2.236003 z"
       id="path2127-5-3-7-5-5-85"
       inkscape:path-effect="#path-effect10355;#path-effect10359"
       inkscape:original-d="m 92.64589,41.4954 c -1.08495,2.4005 -21.2143,-12.9766 -21.2143,-12.4359 0,4.9943 8.38955,21.603 3.65766,26.3349 -1.92464,1.9246 -20.53969,17.894 -22.67737,16.8252 -4.82832,-2.4142 -23.40885,-9.3706 -23.40885,-8.7784 0,3.567 13.80707,18.1963 16.82512,21.2143 6.53492,6.5349 -7.47437,56.0986 35.84483,38.7709 49.30558,-19.7222 70.3706,-92.8917 13.1675,-124.3596 C 22.69469,-40.6211 -98.62003,111.2989 -20.16523,163.6021 33.12762,199.1307 121.32601,149.1663 144.58431,94.8969 158.67068,62.0287 138.72399,-6.2625 174.91669,-27.9781"
       sodipodi:nodetypes="csssssssssc" />
    <path
       style="fill:#808080;fill-opacity:1;stroke:none;stroke-width:0.264583px;stroke-linecap:butt;stroke-linejoin:miter;stroke-opacity:1"
       d="m 92.88275,41.995 c 0.02138,0.102592 -1.311319,1.020901 -4.05116,-0.263729 -1.082272,-0.485661 -2.272223,-1.265583 -3.613821,-1.97963 0,0 -6e-6,-3e-6 -6e-6,-3e-6 -1.620082,-0.883559 -2.954246,-1.981573 -4.62951,-3.401242 -1.514322,-1.274845 -3.122117,-2.726529 -4.89858,-4.214355 -0.659635,-0.551734 -1.34985,-1.117612 -2.051283,-1.618448 -0.508542,-0.350178 -0.952322,-0.671052 -1.340739,-0.798634 -0.128427,-0.02582 -0.139633,-0.04561 -0.02936,-0.01136 0.160016,0.04425 0.379985,-0.0482 0.716015,-0.267269 0.20453,-0.543627 0.523144,-0.630588 0.334777,-0.06351 0.544177,4.0498 2.827437,8.378689 4.223364,14.004678 0.437185,1.737082 1.194621,3.665019 1.625132,6.01362 0.48185,2.141336 0.268155,4.864366 -1.527754,7.269671 -2.535597,2.989296 -5.407936,5.33504 -8.433193,7.829717 -3.597444,3.048888 -8.054882,7.974355 -14.059184,10.493895 -2.268887,0.684008 -4.329631,0.391377 -5.817265,-0.388725 -1.485679,-0.649837 -2.570483,-1.360559 -3.427972,-1.647239 -2.164495,-0.835644 -3.977173,-1.947803 -5.640241,-2.988189 -1.870757,-1.146347 -3.757051,-2.373117 -5.562518,-3.380945 -1.536726,-0.761753 -2.668344,-1.53914 -3.425525,-1.476943 -0.04943,0.133553 0.167305,-0.03168 0.868252,-0.35176 0.432685,-0.650824 0.658325,-0.746699 0.480558,-0.557492 -0.17678,-0.06917 0.24797,0.360698 0.652908,1.252326 0.525811,0.820718 1.289889,1.682435 2.143902,2.768679 1.889262,2.400976 4.264434,4.533725 6.840082,7.046717 2.451972,2.345057 5.05476,5.063984 7.122668,8.458346 2.362796,4.444226 2.434747,8.873654 2.561096,12.455013 0.687288,7.961593 0.729183,16.498933 4.413232,22.530053 0,0 1.3e-5,2e-5 1.3e-5,2e-5 1.561457,3.06166 5.766721,4.93744 9.721563,4.89421 7.03302,-0.11347 14.094685,-2.96573 21.147692,-6.74446 10.945132,-5.97778 20.624046,-15.28714 27.456016,-26.739109 6.42804,-10.81582 10.3521,-23.642836 10.13217,-36.721255 C 124.61541,39.734454 118.92399,25.57781 108.68744,15.604355 101.4368,8.5786765 92.823585,2.6294407 83.254013,-0.10797067 68.932331,-4.4654395 52.534693,-1.2498755 37.769904,5.6560767 22.386706,12.968914 8.4224957,23.663065 -3.6197782,36.682808 c -4.5311326,4.898924 -8.7369128,10.07003 -12.6016188,15.427928 -12.598629,17.631422 -21.857267,37.042045 -23.932953,57.178004 -1.457511,14.2981 1.85305,28.98434 10.297365,39.39721 11.011361,13.99307 28.94664521,21.38803 46.166193,22.5806 22.36272,1.53791 44.358418,-5.53498 62.732106,-15.23405 8e-6,-1e-5 1.5e-5,-1e-5 2.3e-5,-2e-5 23.283053,-12.40516 41.763433,-28.44127 54.183153,-46.92524 5.88707,-8.80601 10.27815,-17.580209 11.97672,-26.699029 2.99828,-15.577246 3.0102,-39.5247 3.91871,-51.653513 0,0 1e-5,-1.9e-5 1e-5,-1.9e-5 1.33744,-18.740049 3.75334,-31.03246661 9.40564,-41.890237 3.60397,-6.902289 8.07765,-11.135208 11.29067,-13.509245 3.21303,-2.374037 5.201,-3.06473 5.33733,-2.8338 0.13632,0.23093 -1.56825,1.376293 -4.32333,4.036014 -2.7055,2.611855 -6.57405,7.000299 -9.53795,13.648192 -4.82596,10.77136693 -6.34425,22.106839 -7.13497,40.835398 0,10e-7 -1e-5,1.9e-5 -1e-5,1.9e-5 -0.46396,12.068986 0.27738,35.564573 -2.50008,52.514643 -1.76022,10.341044 -6.2913,20.147417 -12.39722,29.530977 -12.84041,19.82758 -32.01234,37.15503 -56.210781,50.37278 -5e-6,0 -2.8e-5,2e-5 -2.8e-5,2e-5 -19.191555,10.57283 -42.617698,18.29396 -67.296893,16.9742 -19.3706609,-1.03093 -39.719734,-9.35828 -53.09742,-25.73406 -10.228606,-12.83853 -14.365473,-29.88953 -12.579845,-46.4381 2.393216,-22.369236 12.200564,-43.426284 25.603358,-61.972488 4.07769,-5.692919 8.535798,-11.187975 13.360035,-16.399597 C 1.8595148,16.038787 16.862839,4.6230381 33.5071,-3.3030207 49.784622,-11.167183 68.577999,-14.470244 86.012726,-9.455388 97.520625,-5.9721496 107.42708,0.82613325 115.40011,8.7841712 c 12.07515,11.9865168 18.53367,28.4176398 18.64401,44.5176448 0.0717,15.008589 -4.46351,29.38613 -11.80493,41.379356 -7.76544,12.728288 -18.69654,22.933018 -31.072665,29.501678 -7.652558,4.1326 -16.043048,7.18478 -24.936618,7.37499 -6.689799,0.15969 -13.167609,-3.22064 -16.595481,-9.09739 0,0 -1.5e-5,-3e-5 -1.5e-5,-3e-5 -4.483679,-8.60483 -4.610688,-18.09893 -4.915923,-25.825273 -0.357971,-4.081736 0.0046,-7.399295 -1.387581,-9.373292 -1.394989,-2.527196 -3.586507,-4.845116 -5.850956,-7.176908 -2.429771,-2.450479 -4.9571,-4.873686 -7.238206,-7.854885 -0.719996,-0.945198 -1.579584,-1.995857 -2.414536,-3.313517 -0.86131,-1.097626 -1.579257,-2.897098 -1.550417,-5.28312 -0.07265,-0.995522 0.484654,-2.342532 1.826053,-3.747354 1.505066,-0.987094 2.848217,-1.273044 3.830725,-1.031149 2.613275,0.418813 4.512857,1.501878 5.848171,2.401883 2.011357,1.200924 3.924321,2.516596 5.672557,3.658339 1.689854,1.079512 3.118501,2.061227 4.551861,2.623935 1.623948,0.67775 2.756592,1.449527 3.652632,1.867704 0.844502,0.265666 1.439457,0.574301 1.509737,0.3687 4.422364,-1.441696 8.681006,-5.994303 12.902421,-9.19977 3.140788,-2.439185 5.858895,-4.447273 8.103757,-6.935091 0.764465,-0.530646 0.773218,-2.072105 0.683385,-3.568769 -0.218309,-1.783181 -0.88237,-3.694857 -1.307494,-5.792768 -0.98662,-4.970042 -3.103681,-9.769687 -3.532724,-14.537912 -0.265197,-0.43657 -0.11502,-1.471359 0.79203,-2.700791 0.563405,-0.425078 1.102118,-0.595915 1.56611,-0.541474 0.530797,0.04871 0.920921,0.168026 1.174578,0.306174 0.822374,0.39328 1.451879,0.875018 1.947256,1.297947 0.767829,0.630711 1.47067,1.288615 2.107863,1.904035 1.726829,1.665066 3.212307,3.229578 4.581931,4.598925 1.588038,1.573232 2.625422,2.650517 3.981873,3.587448 0,0 6e-6,4e-6 6e-6,4e-6 1.380548,0.948643 2.375313,1.822856 3.273142,2.410816 2.074512,1.30599 3.395777,1.178137 3.440088,1.390743 z"
       id="path2127-5-3-7-5-5-49-9"
       inkscape:path-effect="#path-effect10363;#path-effect10367"
       inkscape:original-d="M 92.88275,41.995 C 91.7978,44.3955 71.66848,29.0184 71.66848,29.559 c 0,4.9943 8.38952,21.6031 3.65765,26.335 C 73.4015,57.8186 54.78645,73.7879 52.64876,72.7191 47.82045,70.305 29.23992,63.3486 29.23992,63.9408 c 0,3.5669 13.80707,18.1962 16.82511,21.2143 6.53492,6.5349 -7.47436,56.0986 35.84481,38.7709 49.30558,-19.7222 70.3706,-92.8917 13.1675,-124.3596 C 22.93158,-40.1216 -98.38315,111.7985 -19.92835,164.1017 33.36451,199.6303 121.56287,149.6658 144.82117,95.3965 158.90755,62.5283 138.96086,-5.7629 175.15356,-27.4786"
       sodipodi:nodetypes="csssssssssc" />
  </g>
</svg>
