<?xml version="1.0" encoding="UTF-8" standalone="no"?>
<!-- Created with Inkscape (http://www.inkscape.org/) -->

<svg
   width="255.36324mm"
   height="240.17078mm"
   viewBox="0 0 255.36324 240.17078"
   version="1.1"
   id="svg10587"
   inkscape:version="1.1.1 (3bf5ae0d25, 2021-09-20)"
   sodipodi:docname="logo.svg"
   inkscape:export-filename="C:\Users\Alex\Documents\alxhug-blog\inkscape-logo\bitmap.png"
   inkscape:export-xdpi="96"
   inkscape:export-ydpi="96"
   xmlns:inkscape="http://www.inkscape.org/namespaces/inkscape"
   xmlns:sodipodi="http://sodipodi.sourceforge.net/DTD/sodipodi-0.dtd"
   xmlns="http://www.w3.org/2000/svg"
   xmlns:svg="http://www.w3.org/2000/svg">
  <sodipodi:namedview
     id="namedview10589"
     pagecolor="#ffffff"
     bordercolor="#666666"
     borderopacity="1.0"
     inkscape:pageshadow="2"
     inkscape:pageopacity="0.0"
     inkscape:pagecheckerboard="0"
     inkscape:document-units="mm"
     showgrid="false"
     inkscape:zoom="0.36168631"
     inkscape:cx="145.15341"
     inkscape:cy="678.76498"
     inkscape:window-width="1920"
     inkscape:window-height="1001"
     inkscape:window-x="-9"
     inkscape:window-y="-9"
     inkscape:window-maximized="1"
     inkscape:current-layer="layer1"
     fit-margin-left="5"
     fit-margin-top="5"
     fit-margin-right="5"
     fit-margin-bottom="5" />
  <defs
     id="defs10584">
    <inkscape:path-effect
       effect="simplify"
       id="path-effect10347"
       is_visible="true"
       lpeversion="1"
       steps="1"
       threshold="0.00186047"
       smooth_angles="360"
       helper_size="0"
       simplify_individual_paths="false"
       simplify_just_coalesce="false" />
    <inkscape:path-effect
       effect="skeletal"
       id="path-effect10351"
       is_visible="true"
       lpeversion="1"
       pattern="m -227.11311,959.38093 c 0,-2.7556 2.23648,-4.9921 4.99214,-4.9921 2.75566,0 4.99214,2.2365 4.99214,4.9921 0,2.7557 -2.23648,4.9922 -4.99214,4.9922 -2.75566,0 -4.99214,-2.2365 -4.99214,-4.9922 z"
       copytype="single_stretched"
       prop_scale="5"
       scale_y_rel="false"
       spacing="0"
       normal_offset="0"
       tang_offset="0"
       prop_units="false"
       vertical_pattern="false"
       hide_knot="false"
       fuse_tolerance="0" />
    <inkscape:path-effect
       effect="simplify"
       id="path-effect10355"
       is_visible="true"
       lpeversion="1"
       steps="1"
       threshold="0.00186047"
       smooth_angles="360"
       helper_size="0"
       simplify_individual_paths="false"
       simplify_just_coalesce="false" />
    <inkscape:path-effect
       effect="skeletal"
       id="path-effect10359"
       is_visible="true"
       lpeversion="1"
       pattern="m -227.7143,958.49751 c 0,-2.75566 2.23648,-4.99214 4.99214,-4.99214 2.75566,0 4.99214,2.23648 4.99214,4.99214 0,2.75566 -2.23648,4.99214 -4.99214,4.99214 -2.75566,0 -4.99214,-2.23648 -4.99214,-4.99214 z"
       copytype="single_stretched"
       prop_scale="2.5"
       scale_y_rel="false"
       spacing="0"
       normal_offset="0"
       tang_offset="0"
       prop_units="false"
       vertical_pattern="false"
       hide_knot="false"
       fuse_tolerance="0" />
    <inkscape:path-effect
       effect="simplify"
       id="path-effect10363"
       is_visible="true"
       lpeversion="1"
       steps="1"
       threshold="0.00186047"
       smooth_angles="360"
       helper_size="0"
       simplify_individual_paths="false"
       simplify_just_coalesce="false" />
    <inkscape:path-effect
       effect="skeletal"
       id="path-effect10367"
       is_visible="true"
       lpeversion="1"
       pattern="m -227.47742,958.99702 c 0,-2.75566 2.23648,-4.99214 4.99213,-4.99214 2.75567,0 4.99214,2.23648 4.99214,4.99214 0,2.75566 -2.23648,4.99214 -4.99214,4.99214 -2.75566,0 -4.99213,-2.23648 -4.99213,-4.99214 z"
       copytype="single_stretched"
       prop_scale="1"
       scale_y_rel="false"
       spacing="0"
       normal_offset="0"
       tang_offset="0"
       prop_units="false"
       vertical_pattern="false"
       hide_knot="false"
       fuse_tolerance="0" />
  </defs>
  <g
     inkscape:label="Layer 1"
     inkscape:groupmode="layer"
     id="layer1"
     transform="translate(74.645907,35.959743)">
    <g
       id="g10459"
       transform="translate(-313.14226,-1341.4166)">
      <path
         style="fill:#000000;fill-opacity:1;stroke:none;stroke-width:0.264583px;stroke-linecap:butt;stroke-linejoin:miter;stroke-opacity:1"
         d="m 406.38938,1383.7954 c 0.14602,0.7007 -1.21027,3.0652 -5.27345,1.9902 -1.3427,-0.2601 -2.95245,-0.8572 -4.29515,-1.1172 0,0 -1e-5,0 -1e-5,0 -2.1902,-0.8121 -4.03226,-1.8811 -5.9248,-3.0289 -1.7662,-1.0633 -3.76566,-2.3819 -5.53186,-3.4452 -0.70842,-0.4271 -1.36558,-0.8035 -1.93812,-1.0473 -0.54225,-0.2073 -0.5998,-0.2011 -0.12768,0.2 0.12648,0.2 0.86417,0.3768 2.26109,0.5783 1.40843,0.2417 3.14533,-0.3773 5.28032,-1.8847 2.51494,-4.319 3.6016,-6.1868 2.58846,-5.5922 0.77441,2.6128 3.39009,6.0002 5.60463,12.9382 0.43786,0.9638 1.41926,3.0319 2.26039,6.4553 1.26957,3.4338 0.63855,8.5138 -3.21648,14.6714 -3.12756,4.0023 -6.2876,7.0035 -9.09205,9.619 -2.44329,2.8052 -7.11022,8.3375 -16.37328,13.0824 -6.66209,1.6431 -11.66167,1.3774 -14.43176,-0.4289 -2.67437,-1.1171 -3.64543,-1.6954 -2.9789,-1.2064 -3.62737,-1.3819 -6.20668,-2.7542 -7.81688,-3.7167 -2.13114,-1.1635 -3.93336,-2.1965 -5.3424,-2.8261 -1.94441,-0.4847 -1.53004,-0.6562 1.41982,0.3729 1.81823,0.8833 5.15139,-0.1822 10.26619,-3.1176 3.98035,-4.7616 5.77227,-7.7452 5.09378,-9.1672 -0.4729,-4.9769 -0.64037,-7.2923 -1.14213,-6.8093 -0.094,-0.1748 0.4821,0.3123 1.60265,1.679 1.07818,1.2078 3.20803,2.8211 6.04381,5.4304 2.82915,2.3733 6.25016,5.8908 9.66607,11.0211 4.30091,9.3618 5.24823,16.0611 4.90817,18.6186 1.46835,8.5098 1.3061,14.9783 3.40785,15.9396 0,0 0,0 0,0 -2.17607,-2.5712 -2.50651,-3.6991 -4.02629,-3.5121 3.31059,0.041 7.71703,-2.4133 13.56983,-5.4835 8.07934,-4.7937 15.24409,-12.2903 20.22272,-21.214 4.57668,-8.4208 7.30308,-18.1774 6.78661,-27.405 -0.37466,-8.7887 -4.53316,-18.398 -11.09188,-24.3445 -5.80628,-5.1619 -11.83236,-9.4115 -17.52537,-10.6579 -8.0958,-3.0432 -19.70172,-0 -31.44116,4.9875 -12.86118,6.0865 -24.74726,15.3375 -35.232,26.6956 -3.94479,4.2734 -7.64566,8.7963 -11.0845,13.4843 -10.99021,15.8019 -19.15158,31.9195 -20.59213,47.589 -0.79702,9.7491 0.8574,19.7545 5.73236,25.3154 6.29564,9.247 19.66119,14.779 32.30375,16.2736 17.73014,1.9723 36.86413,-3.8001 53.6025,-11.7537 0,0 2e-5,0 2e-5,0 21.45374,-10.7796 38.54793,-24.2338 50.12792,-40.0303 5.45182,-7.6531 9.55793,-14.3583 11.13569,-21.035 4.27825,-16.3255 4.47725,-34.1107 6.75591,-49.9312 0,0 10e-6,0 10e-6,0 2.4261,-18.8661 6.64668,-32.8664 13.94694,-44.0001 4.89625,-7.4382 10.6672,-11.4287 14.79612,-13.2314 4.16065,-1.8165 6.72356,-1.5165 7.3653,-0.4294 0.68161,1.1547 -0.45614,3.2094 -2.29533,6.4405 -1.84317,3.2381 -4.34609,7.7516 -6.03251,13.9262 -3.15123,10.8029 -2.9184,19.8158 -2.59358,38.7258 0,0 0,0 0,0 0.46677,12.0805 2.63138,34.41 0.3372,54.2368 -1.88459,12.7863 -6.69342,24.6554 -13.23822,35.1949 -13.6828,22.5144 -34.23564,42.4252 -60.26599,57.2679 0,0 -3e-5,10e-5 -3e-5,10e-5 -20.82693,12.3215 -47.11466,21.3367 -76.42647,20.4545 -23.85553,-0.7192 -48.8613,-10.9154 -66.95987,-32.041 -13.79739,-17.6901 -19.58662,-39.4702 -17.14486,-60.52 3.02825,-26.8358 13.93308,-51.1855 28.94417,-71.5614 4.50322,-6.3623 9.46622,-12.5056 14.87653,-18.3425 14.37877,-15.5125 31.46044,-28.3716 50.62699,-37.5242 19.30325,-9.7803 42.88753,-13.2589 66.54858,-6.9291 15.38472,4.9752 27.87782,13.4712 37.29543,23.2941 15.75206,16.0123 23.74531,36.993 23.67877,57.9663 -0.22498,18.8635 -5.95639,36.3045 -15.1505,50.6956 -9.63236,15.2809 -23.06783,27.2763 -38.30595,35.0268 -8.85133,4.8401 -19.89993,8.2926 -32.51448,8.6361 -12.16048,0.3922 -23.18183,-5.9964 -30.3433,-17.5037 0,0 -2e-5,-10e-5 -2e-5,-10e-5 -6.08516,-13.7821 -6.37793,-25.13 -5.92129,-32.4157 -0.92002,-5.7154 0.50929,-5.5436 0.9595,-3.2099 -0.0563,-0.8014 -1.41105,-2.3003 -3.30759,-4.6141 -2.14277,-2.3311 -4.96492,-5.3239 -8.03444,-9.4712 -0.45765,-0.6721 -1.49688,-2.0827 -2.9558,-4.4032 -1.76999,-1.5035 -3.07825,-6.0539 -3.34542,-13.3446 -0.57332,-2.6059 1.55045,-6.8417 6.43924,-12.357 5.91841,-3.6022 10.37857,-4.7891 13.22859,-3.797 6.33206,1.3854 9.75437,3.0707 10.69347,4.2517 2.43529,1.5958 4.37733,3.072 5.89267,4.2132 1.73155,1.1498 2.41734,1.884 2.37525,1.8955 3.15661,1.4598 4.38486,2.3536 4.10168,2.3085 -0.44074,-0.7611 -2.78029,-0.4273 -7.10464,0.3286 1.39732,0.6429 4.97934,-3.021 10.58835,-6.6114 3.4059,-2.3519 5.7477,-3.6374 7.44492,-5.1458 -1.28014,3.2001 -1.71764,4.0586 -1.00527,3.8329 0.19876,-0.6291 -0.27452,-2.5548 -0.6722,-5.3511 -0.16798,-3.6581 -1.95267,-9.3993 -2.15142,-15.6044 -1.1245,-0.3299 -0.13957,-3.3061 3.04565,-8.2292 2.36228,-1.7134 4.418,-2.4108 6.13023,-2.1589 1.81614,0.2155 2.95759,0.5321 3.46494,0.8958 1.69201,0.9266 2.68945,1.7261 3.16025,2.2965 0.90152,0.8921 1.62779,1.7309 2.22101,2.4752 1.56288,1.9393 2.92614,3.893 3.94862,5.3681 1.30111,1.7424 1.99537,3.0415 2.6866,3.9598 0,0 0,0 0,0 1.3257,1.2888 2.15803,2.6233 2.59183,3.2733 1.28242,1.6013 1.99654,2.5818 2.21808,3.6448 z"
         id="path2127-5-3-7-5-5-9-2"
         inkscape:path-effect="#path-effect10347;#path-effect10351"
         inkscape:original-d="m 406.38933,1383.7952 c -1.08495,2.4005 -21.21428,-12.9766 -21.21428,-12.436 0,4.9944 8.38953,21.6031 3.65764,26.335 -1.92463,1.9246 -20.53967,17.894 -22.67735,16.8251 -4.82832,-2.4141 -23.40885,-9.3705 -23.40885,-8.7783 0,3.5669 13.80707,18.1963 16.82512,21.2143 6.53492,6.5349 -7.47437,56.0986 35.84481,38.7709 49.30558,-19.7222 70.3706,-92.8917 13.1675,-124.3596 -72.14577,-39.6879 -193.4605,112.2321 -115.00569,164.5353 53.29285,35.5286 141.49122,-14.4359 164.74952,-68.7052 14.08637,-32.8682 -5.86032,-101.1594 30.33238,-122.8751"
         sodipodi:nodetypes="csssssssssc" />
      <path
         style="fill:#9f570e;fill-opacity:1;stroke:none;stroke-width:0.264583px;stroke-linecap:butt;stroke-linejoin:miter;stroke-opacity:1"
         d="m 405.78815,1382.912 c 0.0638,0.3062 -1.26909,1.8081 -4.50947,0.5815 -1.2206,-0.4089 -2.55694,-1.1182 -3.86932,-1.6562 0,0 -10e-6,0 -10e-6,0 -1.82805,-0.8534 -3.3643,-1.9472 -5.11523,-3.2616 -1.62285,-1.2039 -3.32238,-2.571 -5.13607,-3.9259 -0.67742,-0.5047 -1.35626,-1 -2.00885,-1.4042 -0.5225,-0.2979 -0.81849,-0.4949 -0.88584,-0.4241 -0.032,0.059 0.23598,0.1125 0.82954,0.2097 0.62812,0.1183 1.41695,-0.1716 2.42757,-0.8738 1.08747,-2.0043 1.66384,-2.6675 1.17989,-2.1367 0.63051,3.5109 3.03846,7.4867 4.74136,13.6046 0.41095,1.3506 1.29905,3.5259 1.86335,6.1793 0.77697,2.6262 0.40733,6.2327 -2.16102,10.0453 -2.75617,3.3676 -5.73923,5.9622 -8.68025,8.5007 -3.15596,2.9497 -7.70975,8.1183 -14.92657,11.4645 -3.91649,1.0438 -7.07961,0.7614 -9.0482,-0.4037 -1.92793,-0.8236 -2.97682,-1.4886 -3.25938,-1.4819 -2.71303,-1.0404 -4.81339,-2.2502 -6.45654,-3.2614 -1.96742,-1.1525 -3.82416,-2.3072 -5.47999,-3.1729 -1.69415,-0.6601 -2.23657,-1.2084 -1.60856,-0.7832 0.65103,0.4144 2.03601,-0.088 4.39246,-1.3889 1.76308,-2.1924 2.57608,-3.3712 2.21054,-3.7861 -0.29268,-1.9416 -0.0816,-2.4774 -0.0202,-1.7708 0.28987,0.4417 0.99114,1.1739 1.94091,2.3601 1.5968,1.9672 3.85493,3.8792 6.54143,6.4405 2.59325,2.3555 5.50323,5.3741 8.07648,9.4193 3.08981,6.29 3.48961,11.5673 3.44126,14.7664 0.97628,8.1518 0.94941,15.9441 4.0362,20.0586 0,0 10e-6,1e-4 10e-6,1e-4 0.16317,0.9509 2.66102,1.6971 4.56615,1.7418 5.63743,-0.056 11.70275,-2.7584 18.30601,-6.2716 9.87189,-5.5346 18.61166,-14.1725 24.74354,-24.6672 5.73378,-9.9177 9.20872,-21.5933 8.87759,-33.2277 -0.26481,-11.8354 -5.38111,-24.2864 -14.23861,-32.75 -6.70893,-6.3265 -14.35214,-11.6389 -22.4679,-13.8169 -11.98702,-3.8645 -26.58775,-0.7144 -40.21804,5.4729 -14.43753,6.853 -27.62252,17.006 -39.08077,29.4028 -4.31118,4.6642 -8.32754,9.5922 -12.0325,14.6988 -11.99547,16.9453 -20.84261,35.1211 -22.68014,53.5821 -1.21138,12.6103 1.47933,25.5229 8.58549,34.1166 9.24489,12.2161 25.42637,18.9051 40.96779,20.2154 20.62538,1.7012 41.5482,-4.8847 59.30852,-13.9289 0,0 2e-5,0 2e-5,0 22.59685,-11.7957 40.55799,-26.8633 52.66243,-44.3395 5.72335,-8.3733 10.00861,-16.3727 11.66137,-24.5752 3.85079,-17.7932 3.41321,-35.5302 4.98266,-51.0076 0,0 10e-6,0 10e-6,0 1.74589,-18.7743 4.83821,-31.7331 11.10863,-42.6813 4.08857,-7.1033 9.04873,-11.2453 12.60522,-13.4051 3.55649,-2.1597 5.75703,-2.5094 6.09783,-1.9321 0.3408,0.5773 -1.15121,2.0637 -3.56284,4.9377 -2.38145,2.838 -5.73925,7.2906 -8.22339,13.7523 -4.20285,10.7424 -5.05462,21.2886 -5.43198,40.0443 0,0 0,0 0,0 -0.12317,12.065 1.16833,35.1398 -1.43612,53.1604 -1.80673,11.258 -6.44224,21.838 -12.71257,31.655 -13.15614,20.8353 -32.84628,39.1313 -57.73152,52.9585 -10e-6,0 -3e-5,0 -3e-5,0 -19.80491,11.2284 -44.304,19.4351 -70.7205,18.2793 -21.05254,-0.9142 -43.14773,-9.9421 -58.29582,-28.0991 -11.5669,-14.6579 -16.32342,-33.4824 -14.29172,-51.7189 2.63136,-24.0442 12.85025,-46.336 26.85616,-65.5683 4.23713,-5.9438 8.88456,-11.6819 13.9285,-17.1279 13.40526,-14.4739 29.18805,-26.431 46.77825,-34.8171 17.41213,-8.5827 38.00216,-11.9515 57.77172,-6.4437 12.96177,4.0427 23.83815,11.4777 32.35291,20.1351 13.454,13.4962 20.488,31.6333 20.53204,49.5608 -0.0396,16.4542 -5.02335,31.9804 -13.05951,44.8729 -8.46554,13.6856 -20.33577,24.5618 -33.78515,31.5736 -8.10211,4.398 -17.48934,7.6003 -27.77832,7.848 -8.74125,0.2469 -16.92299,-4.2616 -21.75091,-12.2498 0,0 -2e-5,0 -2e-5,0 -5.08431,-10.5434 -5.27337,-20.7385 -5.29295,-28.2967 -0.5268,-4.4224 0.13243,-6.9681 -0.50742,-7.062 -0.89153,-1.8781 -2.77213,-3.8926 -4.89718,-6.2158 -2.32139,-2.4047 -4.96081,-5.0435 -7.53683,-8.461 -0.62005,-0.8403 -1.55023,-2.031 -2.61755,-3.7222 -1.20208,-1.2498 -2.14131,-4.081 -2.22349,-8.3063 -0.26048,-1.5996 0.88433,-4.0296 3.55605,-6.9759 3.1601,-1.9678 5.67211,-2.5915 7.35494,-2.0683 4.00797,0.7812 6.47824,2.0903 7.66513,3.0956 2.16983,1.3484 4.09468,2.7254 5.75508,3.8664 1.71037,1.1091 2.85012,1.9924 3.73555,2.3507 2.1693,0.958 3.39585,1.804 3.82123,2.0331 0.361,-0.1199 -0.14278,0.1974 -1.72119,0.3537 3.26998,-0.6531 7.31194,-4.8869 12.03503,-8.2293 3.23153,-2.4007 5.8259,-4.1494 7.8567,-6.2641 -3.5e-4,0.8717 -0.15529,0.2357 0.0501,-0.7931 -0.0592,-1.3591 -0.65319,-3.2586 -1.06926,-5.6271 -0.67961,-4.478 -2.67207,-9.6307 -3.01477,-14.9378 -0.58626,-0.3962 -0.1247,-2.1587 1.63715,-4.774 1.23799,-0.9082 2.34558,-1.2765 3.27766,-1.148 1.01283,0.1113 1.68467,0.3046 2.03349,0.5273 1.14861,0.5932 1.91588,1.1942 2.40215,1.6724 0.81803,0.7286 1.52954,1.4545 2.15031,2.1182 1.55196,1.6515 3.21519,3.5976 4.34445,4.8873 1.54542,1.7162 2.31463,2.7222 3.49616,3.727 0,0 0,0 0,0 1.40978,1.1246 2.25816,2.0696 3.01766,2.7343 1.77747,1.4167 2.87101,1.7045 2.98178,2.236 z"
         id="path2127-5-3-7-5-5-85"
         inkscape:path-effect="#path-effect10355;#path-effect10359"
         inkscape:original-d="m 405.78815,1382.912 c -1.08495,2.4005 -21.2143,-12.9766 -21.2143,-12.4359 0,4.9943 8.38955,21.603 3.65766,26.3349 -1.92464,1.9246 -20.53969,17.894 -22.67737,16.8252 -4.82832,-2.4142 -23.40885,-9.3706 -23.40885,-8.7784 0,3.567 13.80707,18.1963 16.82512,21.2143 6.53492,6.5349 -7.47437,56.0986 35.84483,38.7709 49.30558,-19.7222 70.3706,-92.8917 13.1675,-124.3596 -72.14579,-39.6879 -193.46051,112.2321 -115.00571,164.5353 53.29285,35.5286 141.49124,-14.4358 164.74954,-68.7052 14.08637,-32.8682 -5.86032,-101.1594 30.33238,-122.875"
         sodipodi:nodetypes="csssssssssc" />
      <path
         style="fill:#231200;fill-opacity:1;stroke:none;stroke-width:0.264583px;stroke-linecap:butt;stroke-linejoin:miter;stroke-opacity:1"
         d="m 406.02501,1383.4116 c 0.0214,0.1026 -1.31134,1.0209 -4.05116,-0.2638 -1.08227,-0.4856 -2.27222,-1.2656 -3.61381,-1.9796 0,0 -1e-5,0 -1e-5,0 -1.62009,-0.8835 -2.95425,-1.9816 -4.62951,-3.4012 -1.51433,-1.2749 -3.12212,-2.7265 -4.89858,-4.2144 -0.65964,-0.5517 -1.34985,-1.1176 -2.05129,-1.6184 -0.50854,-0.3502 -0.95232,-0.671 -1.34074,-0.7986 -0.12842,-0.026 -0.13963,-0.046 -0.0294,-0.011 0.16001,0.044 0.37998,-0.048 0.71601,-0.2673 0.20454,-0.5436 0.52315,-0.6305 0.33478,-0.063 0.54418,4.0498 2.82745,8.3787 4.22336,14.0047 0.43718,1.7371 1.19462,3.665 1.62513,6.0136 0.48185,2.1414 0.26815,4.8644 -1.52774,7.2697 -2.53561,2.9893 -5.40796,5.335 -8.43319,7.8297 -3.59751,3.049 -8.05499,7.9742 -14.0591,10.4938 -2.26888,0.6841 -4.32966,0.3915 -5.81734,-0.3886 -1.4857,-0.6498 -2.57051,-1.3605 -3.42801,-1.6472 -2.16448,-0.8357 -3.97715,-1.9479 -5.64022,-2.9882 -1.87075,-1.1464 -3.75704,-2.3732 -5.56251,-3.381 -1.53672,-0.7617 -2.66834,-1.5391 -3.42552,-1.4769 -0.0494,0.1335 0.1673,-0.032 0.86824,-0.3518 0.43269,-0.6508 0.65832,-0.7467 0.48056,-0.5575 -0.17678,-0.069 0.24797,0.3607 0.6529,1.2523 0.52581,0.8208 1.28989,1.6825 2.14391,2.7687 1.88927,2.401 4.26443,4.5338 6.84008,7.0468 2.45196,2.345 5.05474,5.0639 7.12265,8.4583 2.36284,4.4442 2.43477,8.8737 2.56111,12.455 0.68729,7.9616 0.72917,16.499 4.41323,22.5301 0,0 1e-5,0 1e-5,0 1.56147,3.0617 5.76673,4.9374 9.72157,4.8942 7.03301,-0.1134 14.09465,-2.9658 21.14769,-6.7445 10.94514,-5.9778 20.62405,-15.2872 27.45602,-26.7391 6.42804,-10.8158 10.3521,-23.6429 10.13217,-36.7213 -0.19867,-13.6632 -5.8901,-27.8198 -16.12664,-37.7932 -7.25066,-7.0257 -15.86386,-12.975 -25.43343,-15.7124 -14.32168,-4.3575 -30.71933,-1.1419 -45.48411,5.764 -15.3832,7.3129 -29.34741,18.0071 -41.38969,31.0268 -4.53113,4.899 -8.7369,10.0701 -12.60161,15.428 -12.59862,17.6314 -21.85727,37.042 -23.93295,57.1779 -1.4575,14.2982 1.85302,28.9844 10.29736,39.3973 11.01138,13.993 28.94666,21.388 46.1662,22.5806 22.36272,1.5379 44.35842,-5.535 62.73211,-15.2341 0,0 2e-5,0 2e-5,0 23.28304,-12.4051 41.76339,-28.4414 54.18316,-46.9253 5.88708,-8.806 10.27814,-17.5802 11.97671,-26.699 2.99828,-15.5773 3.0102,-39.5246 3.91871,-51.6535 0,0 0,0 0,0 1.33745,-18.7401 3.7533,-31.0325 9.40565,-41.8903 3.60399,-6.9023 8.07765,-11.1352 11.29067,-13.5092 3.21303,-2.374 5.201,-3.0647 5.33732,-2.8338 0.13632,0.2309 -1.56824,1.3763 -4.32332,4.036 -2.7055,2.6119 -6.57402,7.0003 -9.53795,13.6482 -4.82601,10.7714 -6.34425,22.1068 -7.13497,40.8354 0,0 0,10e-5 0,10e-5 -0.46397,12.069 0.27737,35.5645 -2.5001,52.5145 -1.76021,10.3411 -6.29127,20.1475 -12.39722,29.531 -12.84043,19.8275 -32.01233,37.1551 -56.21077,50.3729 -10e-6,0 -2e-5,0 -3e-5,0 -19.19155,10.5728 -42.6177,18.2939 -67.29689,16.9741 -19.37065,-1.0309 -39.71971,-9.3582 -53.09741,-25.734 -10.22865,-12.8385 -14.36548,-29.8895 -12.57985,-46.4381 2.39321,-22.3693 12.20056,-43.4263 25.60335,-61.9725 4.07769,-5.6929 8.53579,-11.1879 13.36002,-16.3996 12.82108,-13.8506 27.8244,-25.2664 44.46868,-33.1924 16.27752,-7.8642 35.0709,-11.1673 52.50563,-6.1524 11.50791,3.4832 21.41435,10.2816 29.38738,18.2396 12.07513,11.9865 18.53366,28.4176 18.64401,44.5176 0.0717,15.0086 -4.46351,29.3861 -11.80493,41.3793 -7.76544,12.7283 -18.69654,22.9331 -31.07267,29.5017 -7.65254,4.1326 -16.04301,7.1849 -24.93662,7.3751 -6.6898,0.1597 -13.1676,-3.2207 -16.59547,-9.0974 0,0 -2e-5,0 -2e-5,0 -4.4837,-8.6049 -4.61069,-18.099 -4.91592,-25.8253 -0.35798,-4.0818 0.005,-7.3994 -1.38758,-9.3733 -1.395,-2.5272 -3.58652,-4.8452 -5.85096,-7.1769 -2.42977,-2.4505 -4.9571,-4.8737 -7.2382,-7.8549 -0.72,-0.9452 -1.57959,-1.9959 -2.41455,-3.3136 -0.8613,-1.0976 -1.57924,-2.897 -1.5504,-5.283 -0.0727,-0.9956 0.48465,-2.3426 1.82605,-3.7474 1.50505,-0.9871 2.8482,-1.273 3.83071,-1.0312 2.61328,0.4189 4.51286,1.5019 5.84818,2.4019 2.01136,1.2009 3.92432,2.5166 5.67256,3.6584 1.68986,1.0795 3.11852,2.0612 4.55189,2.6239 1.62393,0.6778 2.75655,1.4496 3.65258,1.8677 0.84446,0.2657 1.43941,0.5743 1.50967,0.3687 4.42245,-1.442 8.68116,-5.9943 12.90249,-9.1998 3.14082,-2.4392 5.85893,-4.4472 8.10377,-6.9351 0.76446,-0.5306 0.77322,-2.0721 0.68339,-3.5687 -0.21831,-1.7832 -0.88238,-3.6949 -1.3075,-5.7928 -0.9866,-4.9701 -3.10368,-9.7697 -3.53272,-14.5379 -0.26519,-0.4366 -0.11501,-1.4714 0.79204,-2.7008 0.56341,-0.4251 1.10212,-0.5959 1.56611,-0.5415 0.53079,0.049 0.92092,0.168 1.17457,0.3062 0.82238,0.3933 1.45188,0.875 1.94726,1.2979 0.76783,0.6307 1.47067,1.2887 2.10786,1.9041 1.72683,1.665 3.2123,3.2295 4.58193,4.5989 1.58804,1.5732 2.62542,2.6505 3.98187,3.5874 0,0 10e-6,0 10e-6,0 1.38055,0.9486 2.37532,1.8229 3.27315,2.4108 2.07451,1.306 3.39577,1.1782 3.44008,1.3908 z"
         id="path2127-5-3-7-5-5-49-9"
         inkscape:path-effect="#path-effect10363;#path-effect10367"
         inkscape:original-d="m 406.02501,1383.4116 c -1.08495,2.4005 -21.21427,-12.9766 -21.21427,-12.436 0,4.9943 8.38952,21.6031 3.65765,26.335 -1.92463,1.9246 -20.53968,17.8939 -22.67737,16.8251 -4.82831,-2.4141 -23.40884,-9.3705 -23.40884,-8.7783 0,3.5669 13.80707,18.1962 16.82511,21.2143 6.53492,6.5349 -7.47436,56.0986 35.84481,38.7709 49.30558,-19.7222 70.3706,-92.8917 13.1675,-124.3596 -72.14576,-39.688 -193.46049,112.2321 -115.00569,164.5353 53.29286,35.5286 141.49122,-14.4359 164.74952,-68.7052 14.08638,-32.8682 -5.86031,-101.1594 30.33239,-122.8751"
         sodipodi:nodetypes="csssssssssc" />
    </g>
  </g>
</svg>
